<mxfile host="app.diagrams.net" modified="2022-11-09T01:36:38.249Z" agent="5.0 (Windows NT 10.0; Win64; x64) AppleWebKit/537.36 (KHTML, like Gecko) Chrome/107.0.0.0 Safari/537.36" etag="erjQzIqUsWGU6jwk2uuk" version="20.5.3" type="github">
  <diagram id="DdX1kL4qmvZ2XI6oVMMT" name="Page-1">
    <mxGraphModel dx="1038" dy="547" grid="1" gridSize="10" guides="1" tooltips="1" connect="1" arrows="1" fold="1" page="1" pageScale="1" pageWidth="1169" pageHeight="827" math="0" shadow="0">
      <root>
        <mxCell id="0" />
        <mxCell id="1" parent="0" />
        <mxCell id="r4koNpmlbyy3BlKFXyoA-2" value="A(6)" style="rounded=0;whiteSpace=wrap;html=1;" vertex="1" parent="1">
          <mxGeometry x="80" y="110" width="120" height="60" as="geometry" />
        </mxCell>
        <mxCell id="r4koNpmlbyy3BlKFXyoA-4" value="B(5)" style="rounded=0;whiteSpace=wrap;html=1;" vertex="1" parent="1">
          <mxGeometry x="200" y="110" width="90" height="60" as="geometry" />
        </mxCell>
        <mxCell id="r4koNpmlbyy3BlKFXyoA-5" value="C(7.5)" style="rounded=0;whiteSpace=wrap;html=1;" vertex="1" parent="1">
          <mxGeometry x="290" y="110" width="150" height="60" as="geometry" />
        </mxCell>
        <mxCell id="r4koNpmlbyy3BlKFXyoA-6" value="D(4)" style="rounded=0;whiteSpace=wrap;html=1;" vertex="1" parent="1">
          <mxGeometry x="80" y="220" width="80" height="60" as="geometry" />
        </mxCell>
        <mxCell id="r4koNpmlbyy3BlKFXyoA-7" value="E(5)" style="rounded=0;whiteSpace=wrap;html=1;" vertex="1" parent="1">
          <mxGeometry x="160" y="220" width="90" height="60" as="geometry" />
        </mxCell>
        <mxCell id="r4koNpmlbyy3BlKFXyoA-8" value="Feeder Buffer(4.5)" style="rounded=0;whiteSpace=wrap;html=1;" vertex="1" parent="1">
          <mxGeometry x="250" y="220" width="90" height="60" as="geometry" />
        </mxCell>
        <mxCell id="r4koNpmlbyy3BlKFXyoA-9" value="F(9)" style="rounded=0;whiteSpace=wrap;html=1;" vertex="1" parent="1">
          <mxGeometry x="80" y="340" width="150" height="60" as="geometry" />
        </mxCell>
        <mxCell id="r4koNpmlbyy3BlKFXyoA-11" value="G(7.5)" style="rounded=0;whiteSpace=wrap;html=1;" vertex="1" parent="1">
          <mxGeometry x="230" y="340" width="150" height="60" as="geometry" />
        </mxCell>
        <mxCell id="r4koNpmlbyy3BlKFXyoA-12" value="Feeder Buffer(8.25)" style="rounded=0;whiteSpace=wrap;html=1;" vertex="1" parent="1">
          <mxGeometry x="380" y="340" width="170" height="60" as="geometry" />
        </mxCell>
        <mxCell id="r4koNpmlbyy3BlKFXyoA-13" value="H(7.5)" style="rounded=0;whiteSpace=wrap;html=1;" vertex="1" parent="1">
          <mxGeometry x="465" y="220" width="120" height="60" as="geometry" />
        </mxCell>
        <mxCell id="r4koNpmlbyy3BlKFXyoA-14" value="Project Buffer(13)" style="rounded=0;whiteSpace=wrap;html=1;" vertex="1" parent="1">
          <mxGeometry x="585" y="220" width="180" height="60" as="geometry" />
        </mxCell>
        <mxCell id="r4koNpmlbyy3BlKFXyoA-16" value="" style="endArrow=classic;html=1;rounded=0;exitX=1;exitY=0.5;exitDx=0;exitDy=0;" edge="1" parent="1" source="r4koNpmlbyy3BlKFXyoA-5">
          <mxGeometry width="50" height="50" relative="1" as="geometry">
            <mxPoint x="490" y="400" as="sourcePoint" />
            <mxPoint x="440" y="250" as="targetPoint" />
          </mxGeometry>
        </mxCell>
        <mxCell id="r4koNpmlbyy3BlKFXyoA-17" value="" style="endArrow=classic;html=1;rounded=0;exitX=1;exitY=0.5;exitDx=0;exitDy=0;entryX=0;entryY=0.5;entryDx=0;entryDy=0;" edge="1" parent="1" source="r4koNpmlbyy3BlKFXyoA-8" target="r4koNpmlbyy3BlKFXyoA-13">
          <mxGeometry width="50" height="50" relative="1" as="geometry">
            <mxPoint x="490" y="400" as="sourcePoint" />
            <mxPoint x="540" y="350" as="targetPoint" />
          </mxGeometry>
        </mxCell>
        <mxCell id="r4koNpmlbyy3BlKFXyoA-18" value="" style="endArrow=classic;html=1;rounded=0;" edge="1" parent="1">
          <mxGeometry width="50" height="50" relative="1" as="geometry">
            <mxPoint x="440" y="340" as="sourcePoint" />
            <mxPoint x="440" y="250" as="targetPoint" />
          </mxGeometry>
        </mxCell>
        <mxCell id="r4koNpmlbyy3BlKFXyoA-19" value="39 Days" style="endArrow=classic;startArrow=classic;html=1;rounded=0;" edge="1" parent="1">
          <mxGeometry width="50" height="50" relative="1" as="geometry">
            <mxPoint x="80" y="440" as="sourcePoint" />
            <mxPoint x="760" y="440" as="targetPoint" />
          </mxGeometry>
        </mxCell>
        <mxCell id="r4koNpmlbyy3BlKFXyoA-20" value="Feeder Buffer: D--&amp;gt;E = 0.5(4+5) = 4.5 Days&lt;br&gt;Feeder Buffer: F--&amp;gt;G = 0.5(9+7.5) = 8.25 Days, reduced to 2 Days&lt;br&gt;Project Buffer: A--&amp;gt;B--&amp;gt;C--&amp;gt;H = 0.5(6+5+7.5+7.5) = 13 Days&lt;br&gt;Project Duration =A--&amp;gt;B--&amp;gt;C--&amp;gt;H--&amp;gt;Project Buffer = 6+5+7.5+7.5+13 = 39 Days" style="text;html=1;strokeColor=none;fillColor=none;align=left;verticalAlign=middle;whiteSpace=wrap;rounded=0;" vertex="1" parent="1">
          <mxGeometry x="80" y="470" width="450" height="60" as="geometry" />
        </mxCell>
      </root>
    </mxGraphModel>
  </diagram>
</mxfile>
